<svg height="512pt" viewBox="-54 0 512 512.03773" width="512pt" xmlns="http://www.w3.org/2000/svg"><path d="m133.339844 310.023438c-.089844 0-.175782-.085938-.265625-.085938l-6.53125 13.945312c-1.8125 3.867188-2.746094 8.089844-2.738281 12.359376l33.8125-15.800782zm0 0"/><path d="m357.738281 226.605469 26.128907-12.273438c1.859374-.867187 3.816406-1.519531 5.824218-1.941406 4.671875-11.195313 3.238282-24.011719-3.792968-33.898437l-19.421876-27.453126c-8.261718-11.695312-21.695312-18.644531-36.015624-18.625h-100.722657c-29.253906 0-52.96875 23.714844-52.96875 52.964844v26.484375c0 14.300781-21.539062 50.84375-27.539062 63.734375l-8.652344 18.359375 38.398437 16.421875 15.890626-7.417968 11.476562-24.449219c3.265625-7.0625 23.394531-50.054688 23.394531-57.820313v65.941406l61.261719-28.777343c-1.1875-10.027344 1.636719-20.121094 7.855469-28.074219l9.710937-12.359375h.089844l.351562-.441406 15.007813-18.976563-5.386719-7.59375c-1.828125-2.585937-2.136718-5.949218-.8125-8.828125 1.324219-2.878906 4.082032-4.828125 7.238282-5.121093 3.152343-.289063 6.222656 1.125 8.054687 3.710937l9.179687 12.976563c2.234376 3.222656 2.089844 7.527343-.355468 10.59375l-13.769532 17.390624 21.628907 15.445313zm0 0"/><path d="m185.597656 484.015625c-.253906 14.453125 10.679688 26.65625 25.070313 27.984375 7.265625.386719 14.371093-2.230469 19.648437-7.238281 5.273438-5.011719 8.257813-11.96875 8.246094-19.246094v-8.824219h-52.964844zm0 0"/><path d="m274.933594 332.886719-77.683594 41.667969c-7.65625 17.757812-11.621094 36.890624-11.652344 56.230468v28.25h52.964844v-24.101562c.007812-16.523438 3.878906-32.816406 11.300781-47.578125l19.15625-38.046875c2.136719-4.144532 5.335938-7.648438 9.269531-10.152344 6.023438-3.679688 13.308594-4.675781 20.097657-2.746094 6.789062 1.925782 12.460937 6.601563 15.652343 12.898438l19.15625 38.046875c7.433594 14.789062 11.304688 31.113281 11.300782 47.667969v24.011718h52.964844v-28.425781c0-21.941406-5.105469-43.582031-14.917969-63.207031l-21.804688-43.519532c-4.867187-9.824218-7.40625-20.636718-7.414062-31.601562v-1.589844zm0 0"/><path d="m397.460938 476.691406h-52.964844v7.324219c-.257813 14.453125 10.675781 26.65625 25.070312 27.984375 7.265625.386719 14.367188-2.230469 19.644532-7.238281 5.277343-5.011719 8.261718-11.96875 8.25-19.246094zm0 0"/><path d="m17.8125 373.664062 55.382812 32.980469c7.992188 4.757813 17.894532 4.976563 26.085938.570313l299.945312-161.242188c4.3125-2.171875 6.050782-7.425781 3.878907-11.738281-2.167969-4.3125-7.421875-6.046875-11.734375-3.878906l-22.351563 10.480469-22.636719 28.46875c-4.515624 5.695312-11.175781 9.285156-18.417968 9.925781-7.242188.640625-14.425782-1.722657-19.875-6.539063-.757813-.722656-1.464844-1.496094-2.117188-2.3125l-187.65625 87.949219c-7.957031 3.730469-17.25 3.273437-24.796875-1.226563l-56.222656-33.464843c-1.207031-.710938-2.363281-1.371094-3.472656-1.976563-5.714844-3.179687-12.554688-3.636718-18.644531-1.246094-6.089844 2.390626-10.792969 7.382813-12.816407 13.605469-6.300781 15.21875.511719 32.699219 15.449219 39.644531zm0 0"/><path d="m282.703125 0c-61.300781 0-64.796875 52.550781-63.1875 76.5625.433594 6.601562 5.917969 11.726562 12.535156 11.714844h6.292969c5.402344 0 10.199219-3.457032 11.910156-8.582032l1.941406-5.824218c2.402344-7.214844 9.152344-12.078125 16.753907-12.078125h27.507812c7.609375-.007813 14.367188 4.855469 16.769531 12.078125l1.945313 5.824218c1.707031 5.117188 6.492187 8.574219 11.890625 8.582032h6.292969c6.613281.011718 12.101562-5.113282 12.535156-11.714844 1.605469-24.011719-1.890625-76.5625-63.1875-76.5625zm0 0"/><path d="m328.515625 105.929688h-1.5c-12.984375-.007813-24.507813-8.332032-28.601563-20.65625l-1.941406-5.824219h-27.542968l-1.941407 5.824219c-4.09375 12.324218-15.613281 20.648437-28.601562 20.65625h-1.5c9.4375 16.386718 26.90625 26.488281 45.816406 26.488281s36.378906-10.101563 45.8125-26.488281zm0 0"/><path d="m312.804688 240.726562c-2.070313 2.558594-3.46875 5.59375-4.0625 8.828126l1.679687-.792969 9.53125 10.769531c1.542969 1.40625 3.566406 2.164062 5.652344 2.117188 2.699219.046874 5.257812-1.199219 6.882812-3.351563l6.355469-7.945313-21.539062-15.359374zm0 0"/></svg>