<svg height="511pt" viewBox="-4 0 511 511.9854" width="511pt" xmlns="http://www.w3.org/2000/svg"><path d="m273.777344 94.214844c.347656.4375.695312.871094 1.128906 1.390625h28.550781c5.21875-.011719 9.453125-4.238281 9.464844-9.460938 0-5.292969 3.472656-7.894531 8.679687-7.894531h46.425782c1.347656.003906 2.691406-.171875 3.992187-.519531 10.226563-3.359375 16.335938-13.824219 14.234375-24.378907-6.074218-19.34375-21.78125-44.671874-62.75-44.671874-64.914062 0-79.316406 49.617187-50.855468 84.234374.351562.457032.726562.890626 1.128906 1.300782zm0 0"/><path d="m388.585938 417.027344-142.09375-143.039063-9.761719-9.832031-.078125-.070312c-.171875.175781-.292969.382812-.476563.546874-5.726562 5.351563-13.414062 8.089844-21.234375 7.570313l174.703125 196.40625c6.082031 6.839844 15.308594 9.984375 24.300781 8.28125l62.246094-11.75c16.164063-1.367187 28.367188-15.253906 27.648438-31.460937.21875-6.417969-2.441406-12.601563-7.257813-16.859376-4.8125-4.253906-11.277343-6.136718-17.621093-5.128906-1.234376.183594-2.519532.398438-3.878907.660156l-63.230469 11.914063c-8.472656 1.589844-17.1875-1.121094-23.265624-7.238281zm0 0"/><path d="m221.457031 507.3125c6.546875 4.300781 14.570313 5.710938 22.191407 3.90625 7.617187-1.808594 14.15625-6.671875 18.074218-13.449219l8.765625-14.582031-50.679687-25.339844c-.191406-.082031-.367188-.199218-.519532-.34375l-6.074218 10.324219c-8.082032 13.28125-4.476563 30.550781 8.242187 39.484375zm0 0"/><path d="m44.863281 507.140625 13.621094-8.679687-32.367187-46.339844c-.085938-.085938-.171876-.257813-.261719-.347656l-12.753907 8.070312c-13.0624995 8.773438-16.539062 26.46875-7.769531 39.53125 8.773438 13.058594 26.46875 16.535156 39.53125 7.765625zm0 0"/><path d="m73.152344 489.089844c36.675781-23.320313 68.09375-54.027344 92.246094-90.164063l5.640624-8.589843c3.503907-5.25 9.394532-8.40625 15.707032-8.417969h77.234375l-35.839844 60.660156 50.679687 25.335937c.210938.097657.414063.214844.605469.347657l34.886719-58.226563-36.1875-40.699218-96.757812-108.738282c-6.769532 15.75-14.898438 30.878906-24.300782 45.214844l-48.074218 73.066406c-14.921876 22.691406-34.46875 41.972656-57.363282 56.582032l-11.105468 7.027343 32.453124 46.339844c.089844.089844.089844.175781.175782.261719zm0 0"/><path d="m136.328125 130.167969c-19.101563 17.921875-20.109375 47.917969-2.257813 67.082031l43.996094 46.949219 40.265625-40.265625-11.972656-12.410156c-.480469-.492188-.890625-1.046876-1.214844-1.648438l-20.132812-21.609375 37.488281-5.207031-6.160156 14.578125c.941406.449219 1.796875 1.066406 2.515625 1.824219l36.097656 37.316406c10.414063 11.019531 10.328125 30.109375 3.820313 44.949218l22.996093 23.171876 16.921875-27.683594.953125 19.960937c.34375 10.199219 1.828125 20.328125 4.425781 30.199219l63.4375 63.867188 24.386719-17.007813c.179688-.148437.386719-.265625.605469-.347656l-20.132812-34.710938c-9.832032-17.242187-15.425782-36.578125-16.3125-56.40625l-2.953126-67.949219c-.726562-15.457031-8.914062-29.597656-21.953124-37.921874l-32.59375-20.742188c8.652343 5.054688 18.492187 7.722656 28.515624 7.722656 28.445313.050782 51.90625-22.265625 53.28125-50.675781-1.128906.433594-2.34375.867187-3.558593 1.214844-2.851563.808593-5.800781 1.21875-8.765625 1.214843h-39.484375c-3.953125 10.421876-13.929688 17.324219-25.078125 17.355469h-26.382813c4.0625 8.546875 10.359375 15.835938 18.226563 21.09375l-31.9375-20.3125c-10.183594-6.523437-22.496094-8.855469-34.363282-6.511719l-76.367187 14.582032c-6.121094 1.164062-11.78125 4.054687-16.3125 8.328125zm0 0"/><path d="m400.917969 404.828125c.492187.480469 1.046875.886719 1.648437 1.214844 6.9375-9.070313 7.761719-21.417969 2.082032-31.328125l-3.382813-5.902344-21.347656 14.925781zm0 0"/><path d="m236.816406 239.683594 8.246094 8.332031c2.179688-6.488281 1.183594-13.621094-2.691406-19.265625l-11.976563-12.410156-37.140625 37.144531 22.910156 1.386719c2.753907.136718 5.46875-.726563 7.636719-2.429688zm0 0"/><path d="m122.007812 17.355469h95.457032c4.792968 0 8.679687-3.886719 8.679687-8.675781 0-4.792969-3.886719-8.679688-8.679687-8.679688h-95.457032c-4.792968 0-8.675781 3.886719-8.675781 8.679688 0 4.789062 3.882813 8.675781 8.675781 8.675781zm0 0"/><path d="m217.464844 52.066406c4.792968 0 8.679687-3.882812 8.679687-8.675781s-3.886719-8.679687-8.679687-8.679687h-43.386719c-4.792969 0-8.679687 3.886718-8.679687 8.679687s3.886718 8.675781 8.679687 8.675781zm0 0"/><path d="m69.941406 260.339844h60.746094c4.792969 0 8.675781-3.886719 8.675781-8.679688 0-4.792968-3.882812-8.675781-8.675781-8.675781h-60.746094c-4.792968 0-8.679687 3.882813-8.679687 8.675781 0 4.792969 3.886719 8.679688 8.679687 8.679688zm0 0"/><path d="m130.6875 277.695312h-26.035156c-4.792969 0-8.679688 3.886719-8.679688 8.675782 0 4.792968 3.886719 8.679687 8.679688 8.679687h26.035156c4.792969 0 8.675781-3.886719 8.675781-8.679687 0-4.789063-3.882812-8.675782-8.675781-8.675782zm0 0"/></svg>