<svg height="512pt" viewBox="-36 0 512 512.00017" width="512pt" xmlns="http://www.w3.org/2000/svg"><path d="m21.890625 245.671875 9.183594 14.390625c7.515625 12.316406 23.265625 16.742188 36.101562 10.148438 6.339844-3.574219 10.933594-9.597657 12.703125-16.660157 1.769532-7.058593.558594-14.535156-3.34375-20.679687l-2.648437-4.238282c-1.683594-2.613281-2.25-5.796874-1.570313-8.832031.679688-3.035156 2.550782-5.671875 5.191406-7.320312l31.246094-19.949219c4.753906-3 10.648438-3.570312 15.890625-1.53125 5.238281 2.035156 9.203125 6.433594 10.683594 11.859375l10.238281 38.664063c8.640625.890624 16.925782 3.925781 24.097656 8.828124l43.699219 29.925782c2.675781 1.761718 5.136719 3.835937 7.324219 6.179687 2.277344-2.441406 4.859375-4.578125 7.683594-6.359375l43.339844-29.746094c2.332031-1.546874 4.785156-2.902343 7.328124-4.0625 2.070313-.941406 4.195313-1.765624 6.355469-2.472656 3.355469-1.105468 6.816407-1.847656 10.328125-2.207031l10.328125-38.75c1.480469-5.425781 5.445313-9.824219 10.683594-11.859375 5.242187-2.039062 11.132813-1.46875 15.890625 1.53125l27.71875 17.652344c7.796875 4.921875 10.160156 15.210937 5.292969 23.042968l-19.683594 31.777344-9.09375 14.652344c-.359375.632812-.683594 1.277344-.96875 1.945312-6.296875 12.230469-2.148437 27.246094 9.53125 34.515626 4.949219 3.089843 10.804687 4.398437 16.597656 3.707031 6.097657-.59375 11.804688-3.277344 16.152344-7.59375 1.425781-1.398438 2.671875-2.96875 3.710937-4.675781l37.515626-60.558594c15.261718-24.652344 7.863281-56.996094-16.597657-72.5625l-94.363281-60.117188c-5.5625 46.785156-56.410156 88.71875-87.75 88.71875-31.335938 0-82.183594-41.933594-87.746094-88.71875l-95.335937 60.734375c-11.453125 7.277344-19.546875 18.808594-22.496094 32.054688-2.945313 13.246093-.507813 27.121093 6.78125 38.566406zm0 0"/><path d="m18.800781 90.484375c-4.488281 2.941406-7.179687 7.960937-7.148437 13.328125-.027344 1.617188.214844 3.226562.707031 4.765625l15.800781 51.554687 31.425782-20.039062c-6.886719-17.125-12.800782-31.691406-16.949219-42.285156-1.816407-4.480469-5.550781-7.90625-10.175781-9.328125-4.621094-1.421875-9.636719-.6875-13.660157 2.003906zm0 0"/><path d="m75.917969 285.574219c-5.875 3.273437-12.4375 5.117187-19.15625 5.382812 25.953125 70.003907 85.890625 221.042969 119.789062 221.042969h145.390625c14.476563.046875 27.167969-9.667969 30.898438-23.65625 4.5-17.570312 9.003906-44.050781-8.5625-55.792969-26.484375-17.652343-123.589844-17.652343-158.898438-17.652343-9.621094 0-53.761718-100.726563-91.71875-191.738282l-1.675781 1.058594c6.03125 10.117188 7.839844 22.199219 5.03125 33.636719-2.917969 11.746093-10.550781 21.773437-21.097656 27.71875zm0 0"/><path d="m212.65625 343.921875c5.304688-7.730469 7.304688-17.253906 5.566406-26.464844-1.738281-9.214843-7.078125-17.351562-14.835937-22.617187l-43.695313-29.925782c-9.113281-6.226562-20.625-7.796874-31.074218-4.234374 30.277343 70.972656 47.140624 106.195312 56.410156 123.671874zm0 0"/><path d="m15.359375 475.894531 43.695313 29.925781c16.089843 11.015626 38.0625 6.90625 49.082031-9.179687l12.449219-18.183594c-23.660157-41.679687-43.996094-85.160156-60.824219-130.03125l-53.582031 78.386719c-11.015626 16.089844-6.90625 38.0625 9.179687 49.082031zm0 0"/><path d="m360.078125 511.824219c7.878906.574219 15.722656-1.542969 22.246094-6.003907l43.695312-29.925781c16.085938-11.019531 20.195313-32.992187 9.179688-49.082031l-62.410157-91.277344c-2.941406.890625-5.953124 1.511719-9.003906 1.855469-1.582031.179687-3.175781.269531-4.765625.265625-8.125.023438-16.089843-2.273438-22.953125-6.621094-19.527344-12-26.464844-37.046875-15.890625-57.378906.480469-1.246094 1.101563-2.429688 1.855469-3.53125l2.027344-3.265625c-6.898438-5.675781-15.714844-8.488281-24.628906-7.859375-2.972657.167969-5.914063.730469-8.738282 1.679688-1.410156.453124-2.796875.980468-4.148437 1.589843-1.683594.757813-3.304688 1.644531-4.855469 2.644531l-43.695312 29.925782c-.796876.53125-1.589844 1.148437-2.382813 1.765625-.355469.355469-.707031.621093-.972656.882812-.738281.546875-1.417969 1.167969-2.03125 1.855469-.890625.910156-1.71875 1.882812-2.46875 2.914062-.265625.351563-.53125.792969-.796875 1.144532-.273438.402344-.566406.785156-.882813 1.148437-2.449219 3.667969-4.15625 7.773438-5.03125 12.09375-.53125 2.46875-.796875 4.980469-.792969 7.503907-.011718 7.054687 2.109376 13.949218 6.089844 19.773437l37.871094 55.351563c38.3125 2.46875 71.148438 7.765624 87.480469 18.625 29.925781 19.949218 19.332031 61.261718 15.800781 74.769531-1.820312 7.027343-5.164062 13.566406-9.796875 19.15625zm0 0"/><path d="m220.6875 185.378906c22.070312 0 70.621094-38.410156 70.621094-79.449218v-17.652344c6.390625-10.632813 9.464844-22.925782 8.828125-35.3125 0-35.308594-27.585938-52.964844-79.449219-52.964844-51.859375 0-79.445312 17.65625-79.445312 52.964844-.636719 12.386718 2.4375 24.679687 8.828124 35.3125v17.652344c0 41.039062 48.550782 79.449218 70.617188 79.449218zm34.960938-68.148437c-.535157 10.535156-1.941407 21.007812-4.203126 31.3125-6.777343 6.800781-14.585937 12.492187-23.136718 16.859375 4.949218-13.976563 8.058594-28.539063 9.242187-43.316406-11.152343 2-22.570312 2-33.722656 0 1.183594 14.777343 4.292969 29.339843 9.242187 43.316406-8.550781-4.367188-16.359374-10.058594-23.136718-16.859375-2.261719-10.304688-3.667969-20.777344-4.203125-31.3125-6.097657-2.21875-12.027344-4.871094-17.742188-7.945313-.097656-1.113281-.265625-2.222656-.265625-3.335937v-17.292969c5.671875 3.632812 11.636719 6.785156 17.832032 9.417969.246093-8.152344 1.074218-16.277344 2.472656-24.3125 5.65625 1.726562 11.410156 3.121093 17.230468 4.175781-1.367187 8.558594-2.113281 17.207031-2.222656 25.875 11.601563 2.824219 23.707032 2.824219 35.308594 0-.097656-8.667969-.824219-17.3125-2.179688-25.875 5.820313-1.054688 11.574219-2.449219 17.230469-4.175781 1.386719 8.039062 2.195313 16.160156 2.429688 24.3125 6.195312-2.632813 12.160156-5.785157 17.832031-9.417969v17.273438c0 1.113281-.167969 2.226562-.265625 3.339843-5.714844 3.078125-11.644531 5.738281-17.742187 7.960938zm0 0"/></svg>